# xmcd
#
# Track frame offsets:
#	150
#	12908
#	27142
#	44233
#	63734
#	74634
#	85464
#	98330
#	111895
#	128604
#	145362
#	158212
#	172090
#	186585
#	201160
#
# Disc length: 2834 seconds
#
# Revision: 0
# Processed by: cddbd v1.5.2PL0 Copyright (c) Steve Scherf et al.
# Submitted via: EZCDAudioConverter 2.4.0.1
#
DISCID=e10b100f
DTITLE=Vários - Explosão Sertaneja 06
DYEAR=2003
DGENRE=Sertanjeo
TTITLE0=Rionegro and Solimões - Na Sola da Bota
TTITLE1=Daniel - Cabelo Loiro
TTITLE2=Cezar and Paulinho - Olha Nós Aqui
TTITLE3=Gino and Geno - Apaixonado Por Você
TTITLE4=Emilio and Eduardão - Fogo Na Botina
TTITLE5=Francis Lopes - Pode Tocar
TTITLE6=Brenno Reis and Marco Viola - Pagode
TTITLE7=Ataíde and Alexandre - Tá Nervoso, Vai Pesca
TTITLE8=Rick and Renner - Rodeio e Vaquejada
TTITLE9=Jad and Jefferson - Nóis Capota, Mais num Breca
TTITLE10=Rick Nunes and Ricardi - Mulher Danada
TTITLE11=Rionegro and Solimões - O Grito da Galera
TTITLE12=Gino and Geno - Tchê, Tchê, Tchê, Tchá, Tchá, Tchá
TTITLE13=Cezar and Paulinho - Nóis é do Mato, Mas Nóis Conhece
TTITLE14=Edson and Hudson - Festa Louca (My Crazy Life)
EXTD=
EXTT0=
EXTT1=
EXTT2=
EXTT3=
EXTT4=
EXTT5=
EXTT6=
EXTT7=
EXTT8=
EXTT9=
EXTT10=
EXTT11=
EXTT12=
EXTT13=
EXTT14=
PLAYORDER=
